<svg xmlns="http://www.w3.org/2000/svg" xmlns:xlink="http://www.w3.org/1999/xlink" width="500" zoomAndPan="magnify" viewBox="0 0 375 374.999991" height="500" preserveAspectRatio="xMidYMid meet" version="1.0"><defs><clipPath id="id1"><path d="M 147 86.347656 L 184 86.347656 L 184 225 L 147 225 Z M 147 86.347656 " clip-rule="nonzero"/></clipPath><clipPath id="id2"><path d="M 75 178 L 299.886719 178 L 299.886719 270 L 75 270 Z M 75 178 " clip-rule="nonzero"/></clipPath></defs><path fill="#47b5ff" d="M 128.894531 153.425781 L 92.546875 172.949219 L 92.546875 223.082031 L 128.894531 199.914062 L 128.894531 153.425781 " fill-opacity="1" fill-rule="nonzero"/><path fill="#47b5ff" d="M 128.894531 245.742188 L 128.894531 245.242188 L 128.011719 245.742188 Z M 128.894531 245.742188 " fill-opacity="1" fill-rule="nonzero"/><g clip-path="url(#id1)"><path fill="#47b5ff" d="M 183.414062 86.28125 L 147.066406 105.808594 L 147.066406 188.726562 L 183.414062 224.292969 L 183.414062 86.28125 " fill-opacity="1" fill-rule="nonzero"/></g><path fill="#47b5ff" d="M 219.144531 207.140625 C 222.921875 204.78125 226.695312 202.457031 230.476562 200.132812 L 237.921875 195.558594 L 237.921875 109.714844 L 201.585938 129.242188 L 201.585938 218.417969 C 204.566406 216.453125 207.703125 214.417969 211.027344 212.289062 C 213.703125 210.5625 216.417969 208.839844 219.144531 207.140625 " fill-opacity="1" fill-rule="nonzero"/><g clip-path="url(#id2)"><path fill="#ffffff" d="M 298.542969 185.972656 L 257.484375 178.667969 C 256.554688 178.5 255.867188 179.515625 256.367188 180.316406 L 263.929688 192.601562 L 259.164062 195.433594 L 236.207031 209.492188 C 232.445312 211.804688 228.699219 214.121094 224.957031 216.460938 C 222.273438 218.144531 219.59375 219.832031 216.929688 221.550781 C 210.554688 225.636719 204.207031 229.785156 197.929688 234.054688 C 194.804688 236.183594 191.675781 238.339844 188.566406 240.527344 C 187.746094 241.105469 186.929688 241.707031 186.109375 242.289062 L 183.972656 240.199219 L 150.6875 207.625 L 145.371094 202.429688 L 139.582031 206.121094 L 132.339844 210.738281 L 75.324219 247.085938 L 82.179688 258.632812 L 142.28125 225.25 L 142.289062 225.25 L 165.378906 250.976562 L 177.1875 264.125 L 181.46875 268.902344 L 182.453125 269.988281 L 190.78125 265.871094 C 194.191406 264.1875 197.574219 262.449219 200.917969 260.660156 C 204.273438 258.878906 207.597656 257.054688 210.914062 255.214844 C 217.542969 251.53125 224.101562 247.734375 230.625 243.882812 C 237.15625 240.042969 243.613281 236.078125 250.066406 232.097656 L 272.917969 217.875 L 274.226562 217.039062 L 277.644531 214.855469 L 284.875 226.582031 C 285.363281 227.378906 286.554688 227.238281 286.84375 226.34375 L 299.390625 187.390625 C 299.597656 186.753906 299.195312 186.085938 298.542969 185.972656 " fill-opacity="1" fill-rule="nonzero"/></g></svg>