<svg xmlns="http://www.w3.org/2000/svg" xmlns:xlink="http://www.w3.org/1999/xlink" width="500" zoomAndPan="magnify" viewBox="0 0 375 374.999991" height="500" preserveAspectRatio="xMidYMid meet" version="1.0"><defs><g/><clipPath id="id1"><path d="M 101 84 L 257.941406 84 L 257.941406 252 L 101 252 Z M 101 84 " clip-rule="nonzero"/></clipPath><clipPath id="id2"><path d="M 150 61.507812 L 221 61.507812 L 221 176 L 150 176 Z M 150 61.507812 " clip-rule="nonzero"/></clipPath></defs><g clip-path="url(#id1)"><path fill="#ffffff" d="M 223.164062 85.96875 C 223.164062 86.011719 223.167969 86.050781 223.167969 86.089844 C 223.167969 87.652344 222.769531 89.121094 221.980469 90.457031 C 221.507812 91.261719 220.878906 92.082031 220.070312 92.953125 C 215.929688 97.484375 209.964844 104.070312 207.359375 107.082031 C 210.660156 108.65625 213.605469 110.484375 216.144531 112.53125 C 219.390625 115.15625 221.96875 118.347656 223.800781 122.015625 C 225.3125 125.035156 226.207031 128.546875 226.5 132.457031 C 237.851562 137.929688 244.945312 145.691406 244.945312 154.300781 C 244.945312 170.871094 218.675781 184.308594 186.265625 184.308594 C 153.859375 184.308594 127.589844 170.871094 127.589844 154.300781 C 127.589844 140.933594 144.683594 129.609375 168.300781 125.726562 C 164.191406 123.511719 148.5 114.84375 148.988281 96.605469 C 149.113281 91.925781 150.125 87.984375 151.648438 84.660156 C 131.578125 95.796875 117.421875 116.296875 115.074219 140.261719 L 114.730469 153.0625 L 101.980469 175.78125 C 100.449219 180.027344 102.460938 184.730469 106.589844 186.554688 L 113.746094 189.714844 C 116.175781 190.789062 117.742188 193.191406 117.742188 195.847656 L 117.742188 213.191406 C 117.742188 222.175781 125.089844 229.527344 134.074219 229.527344 L 149.839844 225.308594 C 153.253906 225.308594 156.019531 228.078125 156.019531 231.492188 L 156.019531 245.6875 C 156.019531 249.984375 160.636719 252.699219 164.390625 250.613281 L 224.558594 221.875 C 228.082031 219.917969 230.269531 216.203125 230.269531 212.171875 L 230.269531 203.84375 C 247.066406 190.753906 257.878906 170.34375 257.90625 147.402344 C 257.9375 121.390625 243.980469 98.539062 223.164062 85.96875 Z M 223.164062 85.96875 " fill-opacity="1" fill-rule="nonzero"/></g><g clip-path="url(#id2)"><path fill="#2faa63" d="M 167.355469 134.433594 C 168.039062 135 168.914062 135.757812 169.980469 136.699219 C 171.046875 137.648438 172.265625 138.582031 173.636719 139.511719 C 175.691406 140.882812 177.726562 141.949219 179.738281 142.714844 C 181.753906 143.480469 183.867188 143.863281 186.082031 143.863281 C 188.136719 143.863281 189.855469 143.632812 191.246094 143.171875 C 192.636719 142.707031 193.734375 142.09375 194.539062 141.328125 C 195.34375 140.5625 195.917969 139.675781 196.261719 138.667969 C 196.601562 137.660156 196.773438 136.59375 196.773438 135.464844 C 196.773438 134.214844 196.300781 133.097656 195.351562 132.113281 C 194.40625 131.125 193.25 130.25 191.878906 129.484375 C 190.507812 128.71875 189.078125 128.0625 187.589844 127.519531 C 186.101562 126.972656 184.808594 126.519531 183.722656 126.15625 C 178.890625 124.464844 174.660156 122.644531 171.035156 120.6875 C 167.410156 118.734375 164.390625 116.558594 161.976562 114.160156 C 159.558594 111.765625 157.746094 109.128906 156.535156 106.246094 C 155.328125 103.363281 154.722656 100.152344 154.722656 96.605469 C 154.722656 93.503906 155.246094 90.644531 156.296875 88.027344 C 157.34375 85.40625 158.832031 83.070312 160.765625 81.015625 C 162.699219 78.964844 165.066406 77.222656 167.867188 75.789062 C 170.664062 74.359375 173.816406 73.300781 177.320312 72.617188 L 177.320312 64.21875 C 177.320312 63.492188 177.542969 62.871094 177.984375 62.347656 C 178.425781 61.824219 179.089844 61.558594 179.976562 61.558594 L 191.335938 61.558594 C 191.941406 61.558594 192.574219 61.800781 193.238281 62.285156 C 193.902344 62.769531 194.234375 63.414062 194.234375 64.21875 L 194.234375 72.316406 C 196.492188 72.71875 198.695312 73.292969 200.851562 74.039062 C 203.003906 74.785156 205.148438 75.738281 207.28125 76.910156 C 208.652344 77.714844 209.953125 78.550781 211.179688 79.414062 C 212.40625 80.28125 213.484375 81.117188 214.414062 81.921875 C 215.335938 82.730469 216.074219 83.496094 216.617188 84.21875 C 217.164062 84.945312 217.433594 85.570312 217.433594 86.089844 C 217.433594 86.617188 217.300781 87.097656 217.039062 87.542969 C 216.78125 87.984375 216.386719 88.488281 215.863281 89.050781 L 206.621094 98.902344 C 205.933594 99.585938 205.25 99.925781 204.566406 99.925781 C 204 99.925781 203.488281 99.769531 203.023438 99.445312 C 202.5625 99.125 202.046875 98.71875 201.480469 98.238281 L 200.9375 97.753906 C 200.132812 97.070312 199.238281 96.363281 198.25 95.640625 C 197.261719 94.914062 196.207031 94.257812 195.078125 93.675781 C 193.949219 93.089844 192.757812 92.609375 191.511719 92.226562 C 190.265625 91.839844 188.996094 91.648438 187.707031 91.648438 C 186.375 91.648438 185.128906 91.761719 183.960938 91.984375 C 182.792969 92.203125 181.765625 92.558594 180.878906 93.039062 C 179.996094 93.523438 179.289062 94.15625 178.765625 94.941406 C 178.242188 95.730469 177.980469 96.6875 177.980469 97.8125 C 177.980469 98.941406 178.261719 99.921875 178.828125 100.742188 C 179.390625 101.570312 180.238281 102.335938 181.363281 103.039062 C 182.488281 103.746094 183.890625 104.410156 185.558594 105.035156 C 187.230469 105.65625 189.175781 106.332031 191.390625 107.058594 C 195.660156 108.46875 199.59375 109.949219 203.199219 111.5 C 206.804688 113.050781 209.914062 114.886719 212.535156 117 C 215.152344 119.113281 217.195312 121.644531 218.667969 124.582031 C 220.136719 127.527344 220.871094 131.089844 220.871094 135.277344 C 220.871094 139.066406 220.207031 142.542969 218.878906 145.703125 C 217.546875 148.867188 215.695312 151.675781 213.320312 154.132812 C 210.941406 156.589844 208.136719 158.632812 204.894531 160.265625 C 201.652344 161.898438 198.097656 163.054688 194.230469 163.738281 L 194.230469 172.378906 C 194.230469 174.152344 193.265625 175.039062 191.332031 175.039062 L 179.972656 175.039062 C 178.199219 175.039062 177.316406 174.152344 177.316406 172.378906 L 177.316406 163.558594 C 174.132812 162.875 171.050781 161.828125 168.070312 160.417969 C 165.089844 159.007812 162.273438 157.335938 159.617188 155.40625 C 158.003906 154.234375 156.644531 153.089844 155.539062 151.960938 C 154.429688 150.832031 153.554688 149.925781 152.910156 149.242188 L 152.726562 149.058594 C 152.6875 148.980469 152.644531 148.929688 152.605469 148.910156 C 152.566406 148.886719 152.523438 148.859375 152.484375 148.820312 C 152.445312 148.738281 152.402344 148.6875 152.363281 148.667969 C 152.320312 148.648438 152.28125 148.617188 152.238281 148.578125 C 151.3125 147.570312 150.851562 146.765625 150.851562 146.160156 C 150.851562 145.476562 151.3125 144.710938 152.238281 143.863281 L 162.691406 133.894531 C 163.535156 133.289062 164.21875 132.988281 164.746094 132.988281 C 165.109375 132.988281 165.492188 133.109375 165.894531 133.351562 C 166.304688 133.589844 166.789062 133.953125 167.355469 134.433594 Z M 167.355469 134.433594 " fill-opacity="1" fill-rule="nonzero"/></g><g fill="#ffffff" fill-opacity="1"><g transform="translate(103.450643, 283.63586)"><g><path d="M 8.171875 -9.390625 L 15.078125 -9.390625 L 15.078125 -0.75 C 13.203125 -0.101562 11.140625 0.21875 8.890625 0.21875 C 6.421875 0.21875 4.507812 -0.492188 3.15625 -1.921875 C 1.8125 -3.359375 1.140625 -5.40625 1.140625 -8.0625 C 1.140625 -10.644531 1.875 -12.65625 3.34375 -14.09375 C 4.820312 -15.539062 6.894531 -16.265625 9.5625 -16.265625 C 10.570312 -16.265625 11.523438 -16.164062 12.421875 -15.96875 C 13.316406 -15.78125 14.09375 -15.539062 14.75 -15.25 L 13.390625 -11.84375 C 12.234375 -12.414062 10.960938 -12.703125 9.578125 -12.703125 C 8.316406 -12.703125 7.335938 -12.289062 6.640625 -11.46875 C 5.953125 -10.644531 5.609375 -9.472656 5.609375 -7.953125 C 5.609375 -6.453125 5.921875 -5.304688 6.546875 -4.515625 C 7.171875 -3.734375 8.070312 -3.34375 9.25 -3.34375 C 9.894531 -3.34375 10.488281 -3.40625 11.03125 -3.53125 L 11.03125 -6.046875 L 8.171875 -6.046875 Z M 8.171875 -9.390625 "/></g></g></g><g fill="#ffffff" fill-opacity="1"><g transform="translate(120.071217, 283.63586)"><g><path d="M 8.984375 -12.640625 C 9.347656 -12.640625 9.703125 -12.609375 10.046875 -12.546875 L 10.28125 -12.515625 L 9.90625 -8.46875 C 9.550781 -8.550781 9.0625 -8.59375 8.4375 -8.59375 C 7.5 -8.59375 6.816406 -8.378906 6.390625 -7.953125 C 5.972656 -7.523438 5.765625 -6.910156 5.765625 -6.109375 L 5.765625 0 L 1.484375 0 L 1.484375 -12.421875 L 4.671875 -12.421875 L 5.34375 -10.4375 L 5.546875 -10.4375 C 5.898438 -11.09375 6.394531 -11.625 7.03125 -12.03125 C 7.675781 -12.4375 8.328125 -12.640625 8.984375 -12.640625 Z M 8.984375 -12.640625 "/></g></g></g><g fill="#ffffff" fill-opacity="1"><g transform="translate(130.607082, 283.63586)"><g><path d="M 13.34375 -6.234375 C 13.34375 -4.203125 12.796875 -2.617188 11.703125 -1.484375 C 10.609375 -0.347656 9.078125 0.21875 7.109375 0.21875 C 5.222656 0.21875 3.722656 -0.359375 2.609375 -1.515625 C 1.492188 -2.679688 0.9375 -4.253906 0.9375 -6.234375 C 0.9375 -8.265625 1.484375 -9.835938 2.578125 -10.953125 C 3.671875 -12.078125 5.207031 -12.640625 7.1875 -12.640625 C 8.40625 -12.640625 9.476562 -12.378906 10.40625 -11.859375 C 11.34375 -11.335938 12.066406 -10.59375 12.578125 -9.625 C 13.085938 -8.65625 13.34375 -7.523438 13.34375 -6.234375 Z M 5.296875 -6.234375 C 5.296875 -5.171875 5.4375 -4.359375 5.71875 -3.796875 C 6.007812 -3.234375 6.488281 -2.953125 7.15625 -2.953125 C 7.820312 -2.953125 8.289062 -3.234375 8.5625 -3.796875 C 8.84375 -4.359375 8.984375 -5.171875 8.984375 -6.234375 C 8.984375 -7.296875 8.84375 -8.097656 8.5625 -8.640625 C 8.28125 -9.179688 7.804688 -9.453125 7.140625 -9.453125 C 6.484375 -9.453125 6.007812 -9.179688 5.71875 -8.640625 C 5.4375 -8.109375 5.296875 -7.304688 5.296875 -6.234375 Z M 5.296875 -6.234375 "/></g></g></g><g fill="#ffffff" fill-opacity="1"><g transform="translate(144.91437, 283.63586)"><g><path d="M 12.171875 0 L 10.765625 -5.921875 L 10.4375 -7.703125 L 10.21875 -9.140625 L 10.15625 -9.140625 C 9.789062 -7.097656 9.546875 -5.804688 9.421875 -5.265625 L 8.171875 0 L 3.65625 0 L 0.28125 -12.421875 L 4.5 -12.421875 L 5.5 -7.65625 C 5.820312 -6.019531 6.007812 -4.660156 6.0625 -3.578125 L 6.125 -3.578125 C 6.144531 -4.242188 6.347656 -5.519531 6.734375 -7.40625 L 7.875 -12.421875 L 12.625 -12.421875 L 13.671875 -7.34375 C 14.003906 -5.726562 14.21875 -4.472656 14.3125 -3.578125 L 14.375 -3.578125 C 14.414062 -4.128906 14.488281 -4.816406 14.59375 -5.640625 C 14.695312 -6.472656 14.8125 -7.144531 14.9375 -7.65625 L 16.03125 -12.421875 L 20.15625 -12.421875 L 16.75 0 Z M 12.171875 0 "/></g></g></g><g fill="#ffffff" fill-opacity="1"><g transform="translate(165.350221, 283.63586)"><g/></g></g><g fill="#ffffff" fill-opacity="1"><g transform="translate(171.18277, 283.63586)"><g><path d="M 12.171875 0 L 10.765625 -5.921875 L 10.4375 -7.703125 L 10.21875 -9.140625 L 10.15625 -9.140625 C 9.789062 -7.097656 9.546875 -5.804688 9.421875 -5.265625 L 8.171875 0 L 3.65625 0 L 0.28125 -12.421875 L 4.5 -12.421875 L 5.5 -7.65625 C 5.820312 -6.019531 6.007812 -4.660156 6.0625 -3.578125 L 6.125 -3.578125 C 6.144531 -4.242188 6.347656 -5.519531 6.734375 -7.40625 L 7.875 -12.421875 L 12.625 -12.421875 L 13.671875 -7.34375 C 14.003906 -5.726562 14.21875 -4.472656 14.3125 -3.578125 L 14.375 -3.578125 C 14.414062 -4.128906 14.488281 -4.816406 14.59375 -5.640625 C 14.695312 -6.472656 14.8125 -7.144531 14.9375 -7.65625 L 16.03125 -12.421875 L 20.15625 -12.421875 L 16.75 0 Z M 12.171875 0 "/></g></g></g><g fill="#ffffff" fill-opacity="1"><g transform="translate(191.618621, 283.63586)"><g><path d="M 5.78125 0 L 1.5 0 L 1.5 -12.421875 L 5.78125 -12.421875 Z M 1.390625 -15.515625 C 1.390625 -16.160156 1.566406 -16.640625 1.921875 -16.953125 C 2.285156 -17.265625 2.863281 -17.421875 3.65625 -17.421875 C 4.457031 -17.421875 5.039062 -17.257812 5.40625 -16.9375 C 5.769531 -16.613281 5.953125 -16.140625 5.953125 -15.515625 C 5.953125 -14.253906 5.1875 -13.625 3.65625 -13.625 C 2.144531 -13.625 1.390625 -14.253906 1.390625 -15.515625 Z M 1.390625 -15.515625 "/></g></g></g><g fill="#ffffff" fill-opacity="1"><g transform="translate(198.920272, 283.63586)"><g><path d="M 7.5625 -3.171875 C 8.144531 -3.171875 8.835938 -3.3125 9.640625 -3.59375 L 9.640625 -0.46875 C 9.054688 -0.21875 8.503906 -0.0390625 7.984375 0.0625 C 7.460938 0.164062 6.851562 0.21875 6.15625 0.21875 C 4.707031 0.21875 3.664062 -0.128906 3.03125 -0.828125 C 2.394531 -1.535156 2.078125 -2.625 2.078125 -4.09375 L 2.078125 -9.203125 L 0.578125 -9.203125 L 0.578125 -10.953125 L 2.484375 -12.296875 L 3.59375 -14.90625 L 6.40625 -14.90625 L 6.40625 -12.421875 L 9.453125 -12.421875 L 9.453125 -9.203125 L 6.40625 -9.203125 L 6.40625 -4.375 C 6.40625 -3.570312 6.789062 -3.171875 7.5625 -3.171875 Z M 7.5625 -3.171875 "/></g></g></g><g fill="#ffffff" fill-opacity="1"><g transform="translate(209.247831, 283.63586)"><g><path d="M 9.296875 0 L 9.296875 -6.78125 C 9.296875 -8.445312 8.800781 -9.28125 7.8125 -9.28125 C 7.113281 -9.28125 6.597656 -8.984375 6.265625 -8.390625 C 5.929688 -7.804688 5.765625 -6.828125 5.765625 -5.453125 L 5.765625 0 L 1.484375 0 L 1.484375 -17.0625 L 5.765625 -17.0625 L 5.765625 -14.640625 C 5.765625 -13.535156 5.707031 -12.285156 5.59375 -10.890625 L 5.78125 -10.890625 C 6.195312 -11.523438 6.6875 -11.972656 7.25 -12.234375 C 7.8125 -12.503906 8.460938 -12.640625 9.203125 -12.640625 C 10.597656 -12.640625 11.679688 -12.238281 12.453125 -11.4375 C 13.222656 -10.632812 13.609375 -9.515625 13.609375 -8.078125 L 13.609375 0 Z M 9.296875 0 "/></g></g></g><g fill="#ffffff" fill-opacity="1"><g transform="translate(224.28967, 283.63586)"><g/></g></g><g fill="#ffffff" fill-opacity="1"><g transform="translate(230.12222, 283.63586)"><g><path d="M 8.71875 0 L 5.4375 -11.546875 L 5.34375 -11.546875 C 5.488281 -9.578125 5.5625 -8.050781 5.5625 -6.96875 L 5.5625 0 L 1.734375 0 L 1.734375 -16.03125 L 7.5 -16.03125 L 10.84375 -4.65625 L 10.9375 -4.65625 L 14.203125 -16.03125 L 19.984375 -16.03125 L 19.984375 0 L 16 0 L 16 -7.03125 C 16 -7.394531 16.003906 -7.796875 16.015625 -8.234375 C 16.035156 -8.679688 16.085938 -9.773438 16.171875 -11.515625 L 16.078125 -11.515625 L 12.84375 0 Z M 8.71875 0 "/></g></g></g><g fill="#ffffff" fill-opacity="1"><g transform="translate(251.829829, 283.63586)"><g><path d="M 7.484375 0.21875 C 5.410156 0.21875 3.800781 -0.328125 2.65625 -1.421875 C 1.507812 -2.523438 0.9375 -4.09375 0.9375 -6.125 C 0.9375 -8.226562 1.46875 -9.835938 2.53125 -10.953125 C 3.59375 -12.078125 5.109375 -12.640625 7.078125 -12.640625 C 8.941406 -12.640625 10.382812 -12.148438 11.40625 -11.171875 C 12.425781 -10.203125 12.9375 -8.800781 12.9375 -6.96875 L 12.9375 -5.046875 L 5.265625 -5.046875 C 5.296875 -4.359375 5.550781 -3.816406 6.03125 -3.421875 C 6.507812 -3.023438 7.164062 -2.828125 8 -2.828125 C 8.75 -2.828125 9.4375 -2.894531 10.0625 -3.03125 C 10.695312 -3.175781 11.382812 -3.421875 12.125 -3.765625 L 12.125 -0.6875 C 11.445312 -0.34375 10.75 -0.109375 10.03125 0.015625 C 9.320312 0.148438 8.472656 0.21875 7.484375 0.21875 Z M 7.21875 -9.71875 C 6.71875 -9.71875 6.296875 -9.554688 5.953125 -9.234375 C 5.617188 -8.921875 5.421875 -8.425781 5.359375 -7.75 L 9.046875 -7.75 C 9.023438 -8.351562 8.851562 -8.832031 8.53125 -9.1875 C 8.207031 -9.539062 7.769531 -9.71875 7.21875 -9.71875 Z M 7.21875 -9.71875 "/></g></g></g><g fill="#ffffff" fill-opacity="1"><g transform="translate(265.708444, 283.63586)"><g/></g></g></svg>